HIERARCHY
ROOT Hips
{
	OFFSET -3.958830 18.904000 13.208200
	CHANNELS 6 Xposition Yposition Zposition Zrotation Yrotation Xrotation 
	JOINT LHipJoint
	{
		OFFSET 0.000000 0.000000 0.000000
		CHANNELS 3 Zrotation Yrotation Xrotation
		JOINT LeftUpLeg
		{
			OFFSET 1.800000 -1.400000 0.085000
			CHANNELS 3 Zrotation Yrotation Xrotation
			JOINT LeftLeg
			{
				OFFSET 2.215000 -6.000000 0.000000
				CHANNELS 3 Zrotation Yrotation Xrotation
				JOINT LeftFoot
				{
					OFFSET 2.500000 -6.900000 0.000000
					CHANNELS 3 Zrotation Yrotation Xrotation
					JOINT LeftToeBase
					{
						OFFSET 0.200000 -0.500000 1.950000
						CHANNELS 3 Zrotation Yrotation Xrotation
						End Site
						{
							OFFSET 0.000000 0.000000 0.000000
						}
					}
				}
			}
		}
	}
	JOINT RHipJoint
	{
		OFFSET 0.000000 0.000000 0.000000
		CHANNELS 3 Zrotation Yrotation Xrotation
		JOINT RightUpLeg
		{
			OFFSET -1.800000 -1.400000 0.085000
			CHANNELS 3 Zrotation Yrotation Xrotation
			JOINT RightLeg
			{
				OFFSET -2.215000 -6.000000 0.000000
				CHANNELS 3 Zrotation Yrotation Xrotation
				JOINT RightFoot
				{
					OFFSET -2.500000 -6.900000 0.000000
					CHANNELS 3 Zrotation Yrotation Xrotation
					JOINT RightToeBase
					{
						OFFSET -0.200000 -0.500000 1.950000
						CHANNELS 3 Zrotation Yrotation Xrotation
						End Site
						{
							OFFSET 0.000000 0.000000 0.000000
						}
					}
				}
			}
		}
	}
	JOINT LowerBack
	{
		OFFSET 0.000000 0.000000 0.000000
		CHANNELS 3 Zrotation Yrotation Xrotation
		JOINT Spine
		{
			OFFSET -0.087000 1.940000 -0.288900
			CHANNELS 3 Zrotation Yrotation Xrotation
			JOINT Spine1
			{
				OFFSET 0.000000 1.950000 0.060000
				CHANNELS 3 Zrotation Yrotation Xrotation
				JOINT Neck
				{
					OFFSET 0.000000 0.000000 0.000000
					CHANNELS 3 Zrotation Yrotation Xrotation
					JOINT Neck1
					{
						OFFSET 0.000000 1.600000 0.340000
						CHANNELS 3 Zrotation Yrotation Xrotation
						JOINT Head
						{
							OFFSET 0.000000 1.667000 -0.240000
							CHANNELS 3 Zrotation Yrotation Xrotation
							End Site
							{
								OFFSET 0.000000 0.000000 0.000000
							}
						}
					}
				}
				JOINT LeftShoulder
				{
					OFFSET 0.000000 0.000000 0.000000
					CHANNELS 3 Zrotation Yrotation Xrotation
					JOINT LeftArm
					{
						OFFSET 2.700000 1.550000 -0.730000
						CHANNELS 3 Zrotation Yrotation Xrotation
						JOINT LeftForeArm
						{
							OFFSET 5.450000 0.000000 0.000000
							CHANNELS 3 Zrotation Yrotation Xrotation
							JOINT LeftHand
							{
								OFFSET 3.450000 0.000000 0.000000
								CHANNELS 3 Zrotation Yrotation Xrotation
								JOINT LeftHandIndex1
								{
									OFFSET 0.750000 0.000000 0.000000
									CHANNELS 3 Zrotation Yrotation Xrotation
									End Site
									{
										OFFSET 0.000000 0.000000 0.000000
									}
								}
							}
						}
					}
				}
				JOINT RightShoulder
				{
					OFFSET 0.000000 0.000000 0.000000
					CHANNELS 3 Zrotation Yrotation Xrotation
					JOINT RightArm
					{
						OFFSET -2.700000 1.550000 -0.730000
						CHANNELS 3 Zrotation Yrotation Xrotation
						JOINT RightForeArm
						{
							OFFSET -5.450000 0.000000 0.000000
							CHANNELS 3 Zrotation Yrotation Xrotation
							JOINT RightHand
							{
								OFFSET -3.450000 0.000000 0.000000
								CHANNELS 3 Zrotation Yrotation Xrotation
								JOINT RightHandIndex1
								{
									OFFSET -0.750000 0.000000 0.000000
									CHANNELS 3 Zrotation Yrotation Xrotation
									End Site
									{
										OFFSET 0.000000 0.000000 0.000000
									}
								}
							}
						}
					}
				}
			}
		}
	}
}
MOTION
Frames: 9
Frame Time: 0.016667
0.307390 17.919330 -3.378130 16.042311 -10.231883 -8.200299 -15.914643 10.744966 7.794462 9.267581 -15.561158 -65.842563 -14.333801 8.926212 29.615944 -0.431852 6.037826 2.398562 0.466760 0.311960 0.242900 18.081539 -9.725453 0.887694 -7.038092 0.602625 -14.350571 -8.069713 -2.523143 28.701599 -0.269668 -3.837528 3.115645 0.301440 0.395710 0.127410 -2.259062 -2.898022 -8.670596 -13.083019 9.133652 35.404702 3.045742 6.711523 7.716114 -2.879860 -6.230048 -8.317635 -15.073462 -2.112222 34.929004 1.887250 -7.654180 -20.576410 18.511822 -16.901688 -2.559750 32.155049 -23.258189 -5.266663 4.969416 -31.056375 1.575018 -3.595615 2.948898 0.558870 0.089320 0.040430 0.263890 -13.367658 27.669838 3.727458 -22.655729 16.788349 -14.518498 -51.004656 54.114048 -20.916434 1.617234 -1.077799 -0.290210 0.608070 0.014370 -0.052720 
0.326020 17.874470 -3.381340 16.438409 -10.342130 -9.190775 -15.734001 11.238157 7.160935 5.376821 -14.475478 -58.951236 -14.200583 5.553097 17.063868 -0.719433 3.885494 3.190705 0.408050 0.205220 0.197320 18.076024 -10.126398 1.043350 -8.034158 0.499236 -12.844474 -7.553057 -2.721631 27.413391 -0.266188 -3.802866 3.140819 0.206270 0.395630 0.155250 -2.459379 -2.796647 -8.489773 -11.941216 8.367064 35.623705 0.514901 6.668516 8.206027 -2.232651 -7.102513 -10.063501 -17.990208 -0.664028 37.390667 3.164890 -7.709530 -19.353590 18.043689 -19.369271 -2.055481 33.090764 -25.595262 -6.363793 6.473757 -20.077929 0.622385 -3.687913 2.719186 0.601030 0.066630 0.043310 0.246580 -13.998746 30.363004 4.797793 -24.603400 15.925201 -14.467295 -41.907946 45.658069 -13.442674 1.836007 -1.307048 -0.276980 0.557760 0.053350 -0.052280 
0.346730 17.752790 -3.370330 16.290114 -10.803198 -7.937083 -15.687228 11.432410 6.766029 2.707231 -13.613628 -55.075686 -12.893544 2.343000 2.811985 -0.875315 2.432785 3.728923 0.511230 0.352420 0.202440 18.052304 -10.217153 1.111752 -8.507937 0.592447 -12.941180 -6.310473 -2.945295 26.335064 -0.271548 -3.774703 3.118112 0.292750 0.361550 0.204360 -2.464663 -2.819092 -8.393314 -11.405271 7.630562 32.084393 -0.307935 6.566739 10.512831 -1.968332 -6.392380 -10.770511 -16.294273 0.335034 37.671228 3.273910 -6.312290 -17.527330 19.568381 -21.675442 -2.196916 32.744108 -28.846080 -7.075439 9.331720 -5.214280 -0.954612 -3.939661 2.534615 0.531930 0.085940 0.057650 0.298520 -16.020674 31.875066 3.925371 -27.121852 21.178313 -13.884492 -33.883060 28.614962 -7.440705 2.122404 -1.559434 -0.201960 0.466050 -0.013750 -0.023810 
0.371250 17.598480 -3.402210 15.995840 -10.426049 -7.443732 -15.623056 11.310848 6.658851 1.351951 -13.498948 -53.813694 -11.845415 0.892200 -5.041642 -1.029071 2.272805 3.823768 0.596290 0.447510 0.252620 18.103271 -10.307203 1.112033 -9.195079 0.627693 -12.236318 -5.070051 -3.257110 25.250810 -0.275556 -3.815589 3.079603 0.422290 0.398110 0.209970 -2.649024 -2.421153 -8.358591 -9.559861 7.086323 32.220949 -1.497732 7.019265 12.296998 -1.855617 -5.898041 -10.513937 -13.367813 -0.807947 33.898413 2.400920 -6.142430 -19.134520 22.286353 -22.733055 -3.072691 35.001743 -27.882590 -7.518144 9.192605 0.144214 -1.464984 -4.167850 2.314764 0.531790 0.131610 0.033410 0.318020 -19.065751 32.868254 1.930149 -30.723126 24.587716 -15.348997 -29.966022 10.167051 -4.608198 2.408996 -1.557625 -0.250660 0.533350 -0.016050 -0.048210 
0.367480 17.446390 -3.451790 16.364589 -11.479613 -8.115662 -15.610680 11.171557 6.646355 2.540641 -13.071825 -54.310920 -11.385451 0.716520 -6.001779 -1.230168 2.403599 3.747304 0.734930 0.607570 0.401180 18.132360 -10.353137 1.058061 -10.053877 0.785253 -11.392786 -4.170186 -3.552942 25.650471 -0.315064 -4.020633 2.932598 0.616090 0.375940 0.218520 -2.722324 -2.117122 -8.253449 -9.728333 7.928253 32.803014 -1.484101 8.123847 14.531444 -1.735391 -4.404336 -9.717895 -8.845431 -1.494589 29.964477 -0.308060 -4.853960 -21.122900 24.982771 -21.707879 -3.813051 36.817730 -25.129593 -7.100091 9.863119 -0.310072 -1.650766 -4.315398 2.220248 0.545320 0.180850 0.039730 0.296670 -22.123490 31.561701 0.248264 -30.110874 25.281933 -17.206577 -34.348747 1.301625 -4.456246 2.555149 -1.659891 -0.306850 0.597220 -0.034720 -0.122560 
0.361850 17.283090 -3.491180 16.080824 -12.113545 -7.455838 -15.622959 10.937771 6.870185 4.320863 -12.862820 -58.338562 -11.229961 1.658372 -0.851318 -1.314170 2.528177 3.630350 0.752340 0.601810 0.438760 18.173783 -10.306181 1.068976 -9.527641 1.070283 -11.764810 -3.898717 -3.599907 26.116995 -0.306026 -4.063627 2.854126 0.643780 0.351430 0.260260 -2.786267 -1.854569 -8.283468 -8.920384 8.714943 33.219622 -1.331130 9.095912 14.469167 -1.718104 -3.772612 -9.650038 -7.227767 -1.911330 28.163395 -0.672850 -4.712760 -21.705070 26.071028 -20.773803 -4.135386 37.810879 -24.098976 -7.787822 13.676044 -2.903655 -1.915177 -4.367178 2.408975 0.557940 0.192520 0.033780 0.242980 -23.268359 30.613186 0.496719 -29.147393 23.270814 -18.164833 -39.752930 -0.467867 -4.670858 2.623158 -1.764821 -0.308440 0.558980 0.006870 -0.162330 
0.362170 17.182060 -3.536090 15.424055 -11.980063 -8.119020 -15.590688 10.799161 7.124038 5.994684 -12.584282 -61.562998 -11.886471 3.287122 7.131868 -1.115634 2.934037 3.491102 0.623380 0.444960 0.356280 18.223271 -10.326014 1.109479 -8.947642 1.124331 -10.813143 -3.660036 -3.790007 26.728957 -0.326675 -4.098220 2.913899 0.474600 0.347180 0.219000 -2.917373 -1.643440 -8.418280 -7.219448 8.826554 37.114202 -1.740681 9.385023 11.738963 -1.712539 -5.078528 -10.167678 -9.862939 -2.243727 28.892036 0.817810 -5.519160 -22.315610 22.969329 -21.224790 -2.544420 40.577208 -20.221233 -10.091978 20.592120 -11.175639 -2.433756 -4.195219 2.629254 0.603150 0.121830 0.051100 0.243540 -20.136675 32.329254 2.852016 -30.244371 19.817834 -20.661618 -48.000203 1.646229 -5.691711 2.692884 -1.743536 -0.306610 0.551080 0.017300 -0.133590 
0.358720 17.138690 -3.550910 14.328817 -11.272083 -8.653722 -15.545808 10.728641 7.194229 6.959396 -12.210482 -62.315005 -13.020384 4.592200 12.380101 -0.954178 3.570655 3.273088 0.487450 0.260400 0.262630 18.269325 -10.349851 1.190938 -7.968579 1.230199 -10.089169 -3.408100 -3.969056 27.535994 -0.327478 -4.204077 2.927007 0.329760 0.370000 0.202380 -3.057508 -1.434357 -8.509672 -5.147417 8.406679 40.833488 -2.061793 9.422157 9.328683 -1.793168 -6.385626 -10.328695 -12.143886 -3.049573 28.501774 1.832770 -6.891690 -22.100320 18.998818 -21.568136 -1.428157 41.215808 -16.647777 -11.335306 31.476913 -22.798996 -4.956722 -4.077571 2.805929 0.628660 0.095370 0.022280 0.225640 -15.894683 33.683360 5.092495 -28.883283 16.727859 -22.039822 -59.611568 8.323379 -9.220999 2.599140 -1.745618 -0.326090 0.528080 0.066790 -0.123500 
0.345650 17.167210 -3.526780 13.838539 -10.983950 -8.170636 -15.524693 10.606450 7.186798 6.909941 -12.421935 -62.436581 -13.229638 5.764324 17.210169 -0.964233 4.216638 3.021434 0.510040 0.291350 0.240140 18.311424 -10.354723 1.229849 -7.667801 1.238415 -10.268647 -2.967762 -4.069502 27.075419 -0.306601 -4.212305 2.922292 0.386630 0.420220 0.214100 -3.159780 -1.179921 -8.494961 -4.490880 8.155515 40.731978 -1.911531 9.183522 9.695561 -2.719555 -6.587878 -9.017336 -11.732630 -3.534001 26.280089 2.527920 -7.528990 -23.502330 15.501804 -21.261431 -1.830516 39.580352 -17.306016 -12.334721 47.187034 -32.171479 -11.496034 -4.020401 2.774680 0.619580 0.135110 -0.018710 0.227040 -10.898878 32.992545 5.615498 -25.925744 18.352835 -21.829841 -72.400679 15.819265 -15.768162 2.296193 -1.713735 -0.349620 0.565420 0.104410 -0.125430 
